<?xml version="1.0" encoding="UTF-8" standalone="no"?>
<!DOCTYPE svg PUBLIC "-//W3C//DTD SVG 1.1//EN" "http://www.w3.org/Graphics/SVG/1.1/DTD/svg11.dtd">
<svg xmlns="http://www.w3.org/2000/svg" xmlns:xlink="http://www.w3.org/1999/xlink" version="1.1" width="555.8305pt" height="369.85835pt" viewBox="0 0 555.8305 369.85835">
<g enable-background="new">
<symbol id="font_0_4">
<path d="M .075 .073 C .07100001 .060000004 .065 .035 .065 .032 C .065 .010000001 .083000008 0 .09900001 0 C .117 0 .133 .013 .138 .022 C .143 .031000004 .15100001 .063 .156 .084 C .161 .103 .172 .14900002 .178 .17400001 C .184 .19600001 .19000001 .21800001 .19500001 .24100001 C .20600002 .282 .20800002 .29 .237 .331 C .26500003 .37100003 .31200005 .423 .38700003 .423 C .44500003 .423 .44600005 .372 .44600005 .35300002 C .44600005 .293 .40300004 .18200001 .38700003 .14000002 C .37600003 .112 .37200005 .103 .37200005 .086 C .37200005 .033000005 .41600005 0 .467 0 C .56700006 0 .61100009 .13800001 .61100009 .15300001 C .61100009 .16600001 .59800007 .16600001 .595 .16600001 C .58100005 .16600001 .58000007 .16000001 .57600006 .14900002 C .55300006 .069000009 .51000007 .028 .47000004 .028 C .44900004 .028 .44500003 .042000005 .44500003 .063 C .44500003 .086 .45000003 .099 .46800006 .14400001 C .48000003 .17500001 .521 .28100003 .521 .337 C .521 .43400003 .44400005 .451 .39100004 .451 C .30800004 .451 .25200004 .4 .22200002 .36 C .21500002 .42900003 .156 .451 .114999998 .451 C .072 .451 .049 .42000003 .036000004 .397 C .014000002 .36 0 .303 0 .298 C 0 .285 .014000002 .285 .017 .285 C .031 .285 .032 .28800003 .039 .315 C .054 .374 .073 .423 .112 .423 C .138 .423 .145 .40100003 .145 .374 C .145 .35500003 .136 .31800003 .12900001 .291 C .12200001 .264 .112 .22300002 .10700001 .20100002 L .075 .073 Z "/>
</symbol>
<use xlink:href="#font_0_4" transform="matrix(19.371666,0,0,-19.371666,34.560464,135.45484)"/>
<symbol id="font_0_3">
<path d="M .38700003 .091 C .38200004 .071 .37300004 .037 .37300004 .032 C .37300004 .010000001 .39100004 0 .40700004 0 C .42500005 0 .44100005 .013 .44600005 .022 C .45100004 .031000004 .45900006 .063 .46400006 .084 C .46900005 .103 .48000003 .14900002 .48600007 .17400001 C .49200005 .19600001 .49800004 .21800001 .503 .24100001 C .51400008 .284 .51400008 .286 .53400006 .317 C .56600007 .366 .61600008 .423 .69400009 .423 C .75000008 .423 .753 .377 .753 .35300002 C .753 .293 .71000006 .18200001 .69400009 .14000002 C .683 .112 .679 .103 .679 .086 C .679 .033000005 .72300007 0 .77400007 0 C .8740001 0 .91800007 .13800001 .91800007 .15300001 C .91800007 .16600001 .90500006 .16600001 .90200009 .16600001 C .8880001 .16600001 .887 .16000001 .8830001 .14900002 C .8600001 .069000009 .81700006 .028 .77700009 .028 C .75600007 .028 .75200006 .042000005 .75200006 .063 C .75200006 .086 .757 .099 .77500006 .14400001 C .78700008 .17500001 .82800009 .28100003 .82800009 .337 C .82800009 .35300002 .82800009 .395 .79100009 .42400003 C .77400007 .437 .74500009 .451 .6980001 .451 C .60800006 .451 .55300006 .39200003 .521 .35 C .513 .435 .44200004 .451 .39100004 .451 C .30800004 .451 .25200004 .4 .22200002 .36 C .21500002 .42900003 .156 .451 .114999998 .451 C .072 .451 .049 .42000003 .036000004 .397 C .014000002 .36 0 .303 0 .298 C 0 .285 .014000002 .285 .017 .285 C .031 .285 .032 .28800003 .039 .315 C .054 .374 .073 .423 .112 .423 C .138 .423 .145 .40100003 .145 .374 C .145 .35500003 .136 .31800003 .12900001 .291 C .12200001 .264 .112 .22300002 .10700001 .20100002 L .075 .073 C .07100001 .060000004 .065 .035 .065 .032 C .065 .010000001 .083000008 0 .09900001 0 C .117 0 .133 .013 .138 .022 C .143 .031000004 .15100001 .063 .156 .084 C .161 .103 .172 .14900002 .178 .17400001 C .184 .19600001 .19000001 .21800001 .19500001 .24100001 C .20600002 .282 .20800002 .29 .237 .331 C .26500003 .37100003 .31200005 .423 .38700003 .423 C .44500003 .423 .44600005 .372 .44600005 .35300002 C .44600005 .328 .44300003 .315 .42900003 .259 L .38700003 .091 Z "/>
</symbol>
<use xlink:href="#font_0_3" transform="matrix(19.371666,0,0,-19.371666,87.26047,79.77706)"/>
<symbol id="font_0_5">
<path d="M .18800001 .21200001 C .18900001 .21800001 .212 .308 .214 .313 C .216 .321 .24500002 .37100003 .277 .395 C .28800003 .403 .31500004 .423 .35800005 .423 C .36800004 .423 .39300005 .42200003 .41300003 .409 C .38100005 .4 .36900003 .372 .36900003 .354 C .36900003 .33200003 .38600005 .317 .40900005 .317 C .43200005 .317 .46500004 .336 .46500004 .37800003 C .46500004 .43 .41000004 .451 .35900004 .451 C .307 .451 .26200003 .43 .21800001 .38 C .2 .441 .139 .451 .114999998 .451 C .077999997 .451 .053 .428 .037000006 .4 C .014000002 .361 0 .303 0 .298 C 0 .285 .014000002 .285 .017 .285 C .031 .285 .032 .28800003 .039 .315 C .054 .37600003 .073 .423 .112 .423 C .138 .423 .145 .40100003 .145 .374 C .145 .35500003 .136 .31800003 .12900001 .291 C .12200001 .264 .112 .22300002 .10700001 .20100002 L .075 .073 C .07100001 .060000004 .065 .035 .065 .032 C .065 .010000001 .083000008 0 .09900001 0 C .11400001 0 .134 .009000001 .142 .029000003 C .14400001 .035 .155 .079 .161 .104 L .18800001 .21200001 Z "/>
</symbol>
<use xlink:href="#font_0_5" transform="matrix(19.371666,0,0,-19.371666,147.32157,24.099295)"/>
<path transform="matrix(2.7777777,0,0,-2.7777777,40.491666,131.09166)" stroke-width=".3985" stroke-linecap="butt" stroke-dasharray=".3985,1.99255" stroke-miterlimit="10" stroke-linejoin="miter" fill="none" stroke="#ff0000" d="M 4.3472 4.34781 L 15.37288 15.37239 "/>
<path transform="matrix(1.9642778,-1.9640554,-1.9640554,-1.9642778,83.19405,88.39058)" stroke-width=".31879" stroke-linecap="round" stroke-linejoin="round" fill="none" stroke="#ff0000" d="M -1.19551 1.59401 C -1.09587 .99626 0 .09961 .29886 0 C 0 -.09961 -1.09587 -.99626 -1.19551 -1.59401 "/>
<symbol id="font_0_2">
<path d="M .096 .149 C .106000009 .08400001 .139 0 .224 0 C .256 0 .29200004 .013 .328 .036 C .34500004 .046000005 .397 .083000008 .397 .095000009 C .397 .101 .39000003 .11400001 .381 .11400001 C .37600003 .11400001 .374 .11400001 .35900004 .09900001 C .316 .061000006 .27 .028 .22500001 .028 C .157 .028 .157 .145 .157 .164 C .157 .177 .157 .179 .15900001 .198 C .16000001 .208 .16000001 .21000001 .172 .221 C .227 .273 .416 .455 .416 .62900009 C .416 .64400008 .416 .7160001 .35000003 .7160001 C .26700003 .7160001 .2 .5870001 .18400002 .55700007 C .14 .472 .117 .39000003 .106000009 .34 C .091000009 .273 .091000009 .238 .091000009 .189 C .08400001 .182 .026999999 .131 .017 .12300001 C .0009999983 .109000008 0 .108 0 .102000009 C 0 .095000009 .009 .08400001 .017 .08400001 C .024 .08400001 .051 .109000008 .058 .116000007 L .096 .149 M .16800002 .263 C .186 .365 .26500003 .6880001 .349 .6880001 C .372 .6880001 .384 .67200008 .384 .63600006 C .384 .6240001 .384 .535 .298 .412 C .24700001 .34 .192 .286 .16800002 .263 Z "/>
</symbol>
<use xlink:href="#font_0_2" transform="matrix(19.371666,0,0,-19.371666,33.22888,92.81025)" fill="#1e5688"/>
<symbol id="font_1_1">
<path d="M .448 .098000008 C .44300003 .077 .43400003 .042000005 .43400003 .035 C .43400003 .013000001 .45200003 0 .47100003 0 C .486 0 .508 .008000001 .519 .033000005 C .52 .038000004 .532 .085 .538 .111 C .572 .24600002 .572 .24800003 .574 .252 C .587 .279 .65900006 .41900004 .781 .41900004 C .83000007 .41900004 .851 .39200003 .851 .34700004 C .851 .29000003 .809 .18700002 .786 .13000001 C .781 .11800001 .776 .105000007 .776 .08800001 C .776 .036000004 .82600006 0 .88500007 0 C .99200007 0 1.047 .13000001 1.047 .15500002 C 1.047 .16900002 1.0300001 .16900002 1.0260002 .16900002 C 1.0090001 .16900002 1.0080001 .16500002 1.0020001 .14600002 C .983 .086 .937 .034 .889 .034 C .866 .034 .859 .05 .859 .072000008 C .859 .093 .86300006 .10300001 .87200006 .12500002 C .889 .16500002 .935 .279 .935 .33400003 C .935 .40800003 .882 .45300005 .787 .45300005 C .694 .45300005 .629 .39600004 .589 .34300003 C .58 .44500003 .481 .45300005 .44 .45300005 C .342 .45300005 .286 .39200003 .25 .35400004 C .246 .44200004 .154 .45300005 .12900001 .45300005 C .029 .45300005 0 .3 0 .298 C 0 .284 .016000003 .284 .020999998 .284 C .038000004 .284 .040000008 .29000003 .044 .30300004 C .059 .36100004 .082 .41900004 .124 .41900004 C .158 .41900004 .165 .38700003 .165 .36600004 C .165 .35200004 .155 .314 .149 .28800003 C .142 .261 .132 .22000002 .127 .19800002 L .104 .109000008 C .098000008 .08400001 .087 .040000004 .087 .035 C .087 .013000001 .105000007 0 .124 0 C .139 0 .161 .008000001 .172 .033000005 C .173 .038000004 .18500002 .085 .191 .111 C .19500001 .127 .20600002 .17000002 .209 .18000002 C .214 .20200002 .22000002 .22400002 .22500001 .24700003 C .22700002 .25100003 .263 .32400004 .31200005 .367 C .328 .381 .37 .41900004 .435 .41900004 C .486 .41900004 .505 .39000003 .505 .34700004 C .505 .32500003 .495 .28500004 .487 .254 L .448 .098000008 Z "/>
</symbol>
<use xlink:href="#font_1_1" transform="matrix(13.836944,0,0,-13.836944,43.306386,95.499439)" fill="#1e5688"/>
<path transform="matrix(2.7777777,0,0,-2.7777777,40.491666,131.09166)" stroke-width=".3985" stroke-linecap="butt" stroke-miterlimit="10" stroke-linejoin="miter" fill="none" stroke="#000000" d="M 24.39143 24.39204 L 35.41711 35.41663 "/>
<path transform="matrix(1.9642778,-1.9640554,-1.9640554,-1.9642778,138.8725,32.71214)" stroke-width=".31879" stroke-linecap="round" stroke-linejoin="round" fill="none" stroke="#000000" d="M -1.19551 1.59401 C -1.09587 .99626 0 .09961 .29886 0 C 0 -.09961 -1.09587 -.99626 -1.19551 -1.59401 "/>
<use xlink:href="#font_0_2" transform="matrix(19.371666,0,0,-19.371666,96.128879,37.132486)" fill="#1e5688"/>
<symbol id="font_1_3">
<path d="M .207 .17500001 C .21000003 .19000001 .22000002 .22800002 .223 .24300002 C .22700002 .25800003 .23100002 .27400003 .235 .28700004 C .23900001 .30400003 .27100004 .35600005 .30400003 .38400004 C .339 .41200004 .37 .41900004 .40500004 .41900004 C .417 .41900004 .46500004 .41900004 .49699999 .40200005 C .454 .38700003 .454 .34500004 .454 .344 C .454 .32700003 .46600003 .30300004 .499 .30300004 C .527 .30300004 .561 .32700003 .561 .37100003 C .561 .44500003 .45600004 .45300005 .407 .45300005 C .38300003 .45300005 .315 .45300005 .24700003 .37500004 C .235 .42800004 .177 .45300005 .128 .45300005 C .094 .45300005 .065 .43700005 .039000006 .39800004 C .012999997 .35600005 0 .30400003 0 .29900003 C 0 .284 .015000001 .284 .020999998 .284 C .038000004 .284 .039000006 .28700004 .046000005 .31200005 C .062000008 .37300004 .085999999 .41900004 .12300001 .41900004 C .157 .41900004 .16400002 .38700003 .16400002 .36600004 C .16400002 .35200004 .154 .314 .148 .28800003 C .141 .261 .13100001 .22000002 .126 .19800002 L .103 .109000008 C .097 .08400001 .085999999 .040000004 .085999999 .035 C .085999999 .013000001 .104 0 .12300001 0 C .139 0 .157 .009000001 .16700001 .026 C .17100002 .034 .179 .06600001 .184 .086 L .207 .17500001 Z "/>
</symbol>
<use xlink:href="#font_1_3" transform="matrix(13.836944,0,0,-13.836944,106.206378,39.82167)" fill="#1e5688"/>
<path transform="matrix(2.7777777,0,0,-2.7777777,40.491666,131.09166)" stroke-width=".3985" stroke-linecap="butt" stroke-dasharray="2.98883,2.98883" stroke-miterlimit="10" stroke-linejoin="miter" fill="none" stroke="#00aa33" d="M 5.30893 0 C 24.7764 0 40.08846 16.27318 40.08846 35.28236 "/>
<path transform="matrix(0,-2.7777777,-2.7777777,-0,151.8485,33.085115)" stroke-width=".31879" stroke-linecap="round" stroke-linejoin="round" fill="none" stroke="#00aa33" d="M -1.19551 1.59401 C -1.09587 .99626 0 .09961 .29886 0 C 0 -.09961 -1.09587 -.99626 -1.19551 -1.59401 "/>
<use xlink:href="#font_0_2" transform="matrix(19.371666,0,0,-19.371666,132.17331,123.32415)" fill="#1e5688"/>
<use xlink:href="#font_1_1" transform="matrix(13.836944,0,0,-13.836944,142.24805,126.01056)" fill="#1e5688"/>
<symbol id="font_2_1">
<path d="M .23000002 .53000006 C .23000002 .594 .17700002 .64500007 .115 .64500007 C .052 .64500007 0 .594 0 .53000006 C 0 .46600003 .053000004 .41500003 .115 .41500003 C .178 .41500003 .23000002 .46600003 .23000002 .53000006 M .115 .46400003 C .078 .46400003 .049000004 .49300004 .049000004 .53000006 C .049000004 .56700006 .078 .596 .115 .596 C .15200001 .596 .18100003 .56700006 .18100003 .53000006 C .18100003 .49300004 .15200001 .46400003 .115 .46400003 M .15900001 .183 C .137 .125 .092 .08 .039000006 .048999996 C .030000002 .044 .020000004 .038000004 .020000004 .024999991 C .020000004 .0109999929 .031000004 0 .045 0 C .069000009 0 .23000002 .1 .23000002 .28500004 C .23000002 .36300005 .169 .404 .115 .404 C .052 .404 0 .35300002 0 .289 C 0 .22500001 .053000004 .17400001 .115 .17400001 C .13 .17400001 .144 .177 .15900001 .183 M .115 .223 C .078 .223 .049000004 .252 .049000004 .289 C .049000004 .326 .078 .35500003 .115 .35500003 C .15200001 .35500003 .18100003 .326 .18100003 .289 C .18100003 .252 .15200001 .223 .115 .223 Z "/>
</symbol>
<use xlink:href="#font_2_1" transform="matrix(19.371666,0,0,-19.371666,165.19979,126.84979)" fill="#1e5688"/>
<use xlink:href="#font_0_2" transform="matrix(19.371666,0,0,-19.371666,175.95388,123.32415)" fill="#1e5688"/>
<use xlink:href="#font_1_3" transform="matrix(13.836944,0,0,-13.836944,186.03139,126.01056)" fill="#1e5688"/>
<symbol id="font_3_4">
<path d="M .21700001 .365 L .33600004 .365 C .351 .365 .37900005 .365 .37900005 .39800004 C .37900005 .43100003 .351 .43100003 .33600004 .43100003 L .21700001 .43100003 L .21700001 .47700004 C .21700001 .54 .26500003 .55 .307 .55 C .31000004 .518 .33600004 .504 .35400004 .504 C .37500004 .504 .40100003 .52000007 .40100003 .55200007 C .40100003 .61600008 .31700004 .61600008 .30100004 .61600008 C .224 .61600008 .141 .574 .141 .48000003 L .141 .43100003 L .045 .43100003 C .030000002 .43100003 .0009999983 .43100003 .0009999983 .39800004 C .0009999983 .365 .029 .365 .044 .365 L .141 .365 L .141 .066 L .044 .066 C .030000002 .066 0 .066 0 .033 C 0 0 .030000002 0 .044 0 L .314 0 C .328 0 .358 0 .358 .033 C .358 .066 .328 .066 .314 .066 L .21700001 .066 L .21700001 .365 Z "/>
</symbol>
<symbol id="font_3_6">
<path d="M .23700002 .558 C .23700002 .588 .21300003 .61200007 .18300003 .61200007 C .153 .61200007 .12900001 .588 .12900001 .558 C .12900001 .528 .153 .504 .18300003 .504 C .21300003 .504 .23700002 .528 .23700002 .558 M .05200001 .43100003 C .037 .43100003 .008000001 .43100003 .008000001 .39800004 C .008000001 .365 .038000004 .365 .05200001 .365 L .16100002 .365 L .16100002 .066 L .044 .066 C .029 .066 0 .066 0 .033 C 0 0 .030000002 0 .044 0 L .33800004 0 C .35200004 0 .38200004 0 .38200004 .033 C .38200004 .066 .35200004 .066 .33800004 .066 L .23700002 .066 L .23700002 .388 C .23700002 .42200003 .22700003 .43100003 .194 .43100003 L .05200001 .43100003 Z "/>
</symbol>
<symbol id="font_3_8">
<path d="M .42400003 .291 C .42400003 .39100004 .374 .43600003 .292 .43600003 C .21800001 .43600003 .17 .39600004 .16 .386 C .16 .416 .157 .43100003 .117000009 .43100003 L .043 .43100003 C .027000003 .43100003 0 .43100003 0 .39800004 C 0 .365 .027000003 .365 .043 .365 L .08400001 .365 L .08400001 .066 L .043 .066 C .027000003 .066 0 .066 0 .033 C 0 0 .027000003 0 .043 0 L .201 0 C .21700001 0 .24400002 0 .24400002 .033 C .24400002 .066 .21700001 .066 .201 .066 L .16 .066 L .16 .238 C .16 .33400003 .237 .37 .287 .37 C .333 .37 .34800003 .34800003 .34800003 .289 L .34800003 .066 L .315 .066 C .3 .066 .272 .066 .272 .033 C .272 0 .3 0 .315 0 L .465 0 C .481 0 .5080001 0 .5080001 .033 C .5080001 .066 .481 .066 .465 .066 L .42400003 .066 L .42400003 .291 Z "/>
</symbol>
<symbol id="font_3_2">
<path d="M .40100003 .573 C .40100003 .60700008 .391 .616 .358 .616 L .284 .616 C .268 .616 .241 .616 .241 .583 C .241 .55 .268 .55 .284 .55 L .32500003 .55 L .32500003 .4 C .279 .43600003 .23700002 .441 .21000001 .441 C .099 .441 0 .347 0 .22 C 0 .098000008 .091 0 .201 0 C .254 0 .296 .024000003 .32500003 .052 C .32500003 .024000003 .32500003 .0050000005 .368 .0050000005 L .442 .0050000005 C .458 .0050000005 .48500005 .0050000005 .48500005 .038 C .48500005 .071 .458 .071 .442 .071 L .40100003 .071 L .40100003 .573 M .32500003 .202 C .32500003 .145 .279 .06600001 .204 .06600001 C .137 .06600001 .076000008 .132 .076000008 .22 C .076000008 .30900003 .14200002 .375 .215 .375 C .27400003 .375 .32500003 .324 .32500003 .269 L .32500003 .202 Z "/>
</symbol>
<use xlink:href="#font_3_4" transform="matrix(19.371666,0,0,-19.371666,8.166386,175.30556)"/>
<use xlink:href="#font_3_6" transform="matrix(19.371666,0,0,-19.371666,19.169493,175.30556)"/>
<use xlink:href="#font_3_8" transform="matrix(19.371666,0,0,-19.371666,28.138575,175.30556)"/>
<use xlink:href="#font_3_2" transform="matrix(19.371666,0,0,-19.371666,38.870477,175.40242)"/>
<use xlink:href="#font_0_4" transform="matrix(19.371666,0,0,-19.371666,55.729906,175.49927)"/>
<symbol id="font_4_3">
<path d="M .698 .22000003 C .71300008 .22000003 .73600009 .22000003 .73600009 .24500004 C .73600009 .26900003 .7120001 .26900003 .69900009 .26900003 L .037000009 .26900003 C .024000004 .26900003 0 .26900003 0 .24500004 C 0 .22000003 .023000002 .22000003 .038000004 .22000003 L .698 .22000003 M .69900009 0 C .7120001 0 .73600009 0 .73600009 .023999997 C .73600009 .049000004 .71300008 .049000004 .698 .049000004 L .038000004 .049000004 C .023000002 .049000004 0 .049000004 0 .023999997 C 0 0 .024000004 0 .037000009 0 L .69900009 0 Z "/>
</symbol>
<symbol id="font_4_1">
<path d="M .24000001 .9990001 C .050000006 .86500009 0 .653 0 .5 C 0 .35900004 .042000005 .14000002 .24000001 0 C .248 0 .26000003 0 .26000003 .0119999949 C .26000003 .018000007 .257 .019999996 .25 .026999996 C .117000009 .14700002 .06800001 .31700004 .06800001 .499 C .06800001 .76900008 .171 .901 .25300003 .975 C .257 .97900006 .26000003 .98200008 .26000003 .98700007 C .26000003 .9990001 .248 .9990001 .24000001 .9990001 Z "/>
</symbol>
<use xlink:href="#font_4_3" transform="matrix(19.371666,0,0,-19.371666,76.15323,173.05844)"/>
<use xlink:href="#font_4_1" transform="matrix(19.371666,0,0,-19.371666,100.309719,180.1291)"/>
<symbol id="font_0_1">
<path d="M .09900001 .209 C .09900001 .154 .089 .089999999 .020999998 .025999994 C .017000005 .022 .013999999 .018999994 .013999999 .013999999 C .013999999 .0069999995 .022 0 .027999998 0 C .04200001 0 .127 .08 .127 .199 C .127 .261 .103 .308 .05700001 .308 C .024000004 .308 0 .282 0 .25100003 C 0 .21900001 .023000002 .193 .058 .193 C .082 .193 .098000008 .209 .09900001 .209 Z "/>
</symbol>
<use xlink:href="#font_0_5" transform="matrix(19.371666,0,0,-19.371666,107.64378,175.49927)"/>
<use xlink:href="#font_0_1" transform="matrix(19.371666,0,0,-19.371666,118.569408,179.0443)"/>
<use xlink:href="#font_0_2" transform="matrix(19.371666,0,0,-19.371666,127.1898,175.53801)" fill="#1e5688"/>
<use xlink:href="#font_1_1" transform="matrix(13.836944,0,0,-13.836944,137.28691,178.22444)" fill="#1e5688"/>
<use xlink:href="#font_2_1" transform="matrix(19.371666,0,0,-19.371666,160.23867,179.06366)" fill="#1e5688"/>
<use xlink:href="#font_0_2" transform="matrix(19.371666,0,0,-19.371666,170.99275,175.53801)" fill="#1e5688"/>
<use xlink:href="#font_1_3" transform="matrix(13.836944,0,0,-13.836944,181.07025,178.22444)" fill="#1e5688"/>
<symbol id="font_4_2">
<path d="M .019000002 .9990001 C .012000002 .9990001 0 .9990001 0 .98700007 C 0 .98200008 .0029999987 .97900006 .009000003 .97200009 C .095000009 .89300009 .19100002 .758 .19100002 .5 C .19100002 .291 .12600002 .13300002 .018 .034999998 C .001000002 .018000007 0 .017000005 0 .0119999949 C 0 .0069999995 .0029999987 0 .013000004 0 C .024999999 0 .12000001 .066 .18599999 .19100002 C .23000002 .27400003 .259 .38200004 .259 .499 C .259 .64000007 .21700001 .859 .019000002 .9990001 Z "/>
</symbol>
<use xlink:href="#font_4_2" transform="matrix(19.371666,0,0,-19.371666,192.33925,180.1291)"/>
<use xlink:href="#font_0_4" transform="matrix(19.371666,0,0,-19.371666,310.1521,135.45484)"/>
<use xlink:href="#font_0_3" transform="matrix(19.371666,0,0,-19.371666,504.02156,135.45484)"/>
<use xlink:href="#font_0_5" transform="matrix(19.371666,0,0,-19.371666,305.06877,39.582605)"/>
<symbol id="font_1_2">
<path d="M .104 .109000008 C .098000008 .08400001 .087 .040000004 .087 .035 C .087 .013000001 .105000007 0 .124 0 C .139 0 .161 .008000001 .172 .033000005 C .173 .038000004 .18500002 .085 .191 .111 C .22500001 .24600002 .22500001 .24800003 .22700002 .252 C .24000003 .279 .31200005 .41900004 .43400003 .41900004 C .48299999 .41900004 .504 .39200003 .504 .34700004 C .504 .29000003 .462 .18700002 .439 .13000001 C .43400003 .11800001 .42900003 .105000007 .42900003 .08800001 C .42900003 .036000004 .47900004 0 .538 0 C .64500007 0 .7 .13000001 .7 .15500002 C .7 .16900002 .683 .16900002 .679 .16900002 C .662 .16900002 .661 .16500002 .65500006 .14600002 C .63600006 .086 .59000006 .034 .542 .034 C .519 .034 .512 .05 .512 .072000008 C .512 .093 .51600006 .10300001 .52500006 .12500002 C .542 .16500002 .588 .279 .588 .33400003 C .588 .40800003 .535 .45300005 .44 .45300005 C .34900005 .45300005 .286 .39800004 .251 .35400004 C .246 .43600003 .166 .45300005 .12900001 .45300005 C .029 .45300005 0 .3 0 .298 C 0 .284 .016000003 .284 .020999998 .284 C .038000004 .284 .040000008 .29000003 .044 .30300004 C .059 .36100004 .082 .41900004 .124 .41900004 C .158 .41900004 .165 .38700003 .165 .36600004 C .165 .35200004 .155 .314 .149 .28800003 C .142 .261 .132 .22000002 .127 .19800002 L .104 .109000008 Z "/>
</symbol>
<use xlink:href="#font_1_2" transform="matrix(13.836944,0,0,-13.836944,315.69245,42.310564)"/>
<use xlink:href="#font_0_5" transform="matrix(19.371666,0,0,-19.371666,499.516,39.582605)"/>
<use xlink:href="#font_1_1" transform="matrix(13.836944,0,0,-13.836944,510.1397,42.310564)"/>
<path transform="matrix(2.7777777,0,0,-2.7777777,40.491666,131.09166)" stroke-width=".3985" stroke-linecap="butt" stroke-dasharray="2.98883,1.99255,.3985,1.99255" stroke-miterlimit="10" stroke-linejoin="miter" fill="none" stroke="#000000" d="M 104.52277 0 L 163.24127 0 "/>
<path transform="matrix(2.7777777,0,0,-2.7777777,493.9396,131.09166)" stroke-width=".31879" stroke-linecap="round" stroke-linejoin="round" fill="none" stroke="#000000" d="M -1.19551 1.59401 C -1.09587 .99626 0 .09961 .29886 0 C 0 -.09961 -1.09587 -.99626 -1.19551 -1.59401 "/>
<use xlink:href="#font_0_2" transform="matrix(19.371666,0,0,-19.371666,408.83164,123.41859)" fill="#1e5688"/>
<path transform="matrix(2.7777777,0,0,-2.7777777,40.491666,131.09166)" stroke-width=".3985" stroke-linecap="butt" stroke-miterlimit="10" stroke-linejoin="miter" fill="none" stroke="#000000" d="M 99.21382 4.34781 L 99.21382 28.71194 "/>
<path transform="matrix(0,-2.7777777,-2.7777777,-0,316.0856,51.336278)" stroke-width=".31879" stroke-linecap="round" stroke-linejoin="round" fill="none" stroke="#000000" d="M -1.19551 1.59401 C -1.09587 .99626 0 .09961 .29886 0 C 0 -.09961 -1.09587 -.99626 -1.19551 -1.59401 "/>
<use xlink:href="#font_0_2" transform="matrix(19.371666,0,0,-19.371666,285.78443,90.11582)" fill="#1e5688"/>
<use xlink:href="#font_1_2" transform="matrix(13.836944,0,0,-13.836944,295.8619,92.80223)" fill="#1e5688"/>
<path transform="matrix(2.7777777,0,0,-2.7777777,40.491666,131.09166)" stroke-width=".3985" stroke-linecap="butt" stroke-miterlimit="10" stroke-linejoin="miter" fill="none" stroke="#000000" d="M 170.08087 4.34781 L 170.08087 28.71194 "/>
<path transform="matrix(0,-2.7777777,-2.7777777,-0,512.9385,51.336278)" stroke-width=".31879" stroke-linecap="round" stroke-linejoin="round" fill="none" stroke="#000000" d="M -1.19551 1.59401 C -1.09587 .99626 0 .09961 .29886 0 C 0 -.09961 -1.09587 -.99626 -1.19551 -1.59401 "/>
<use xlink:href="#font_0_2" transform="matrix(19.371666,0,0,-19.371666,521.2844,90.11582)" fill="#1e5688"/>
<use xlink:href="#font_1_1" transform="matrix(13.836944,0,0,-13.836944,531.35916,92.80223)" fill="#1e5688"/>
<path transform="matrix(2.7777777,0,0,-2.7777777,40.491666,131.09166)" stroke-width=".3985" stroke-linecap="butt" stroke-dasharray="2.98883,2.98883" stroke-miterlimit="10" stroke-linejoin="miter" fill="none" stroke="#00aa33" d="M 106.35274 34.01617 L 161.61882 34.01617 "/>
<path transform="matrix(2.7777777,0,0,-2.7777777,489.4328,36.602308)" stroke-width=".31879" stroke-linecap="round" stroke-linejoin="round" fill="none" stroke="#00aa33" d="M -1.19551 1.59401 C -1.09587 .99626 0 .09961 .29886 0 C 0 -.09961 -1.09587 -.99626 -1.19551 -1.59401 "/>
<use xlink:href="#font_0_2" transform="matrix(19.371666,0,0,-19.371666,359.9372,25.163033)" fill="#1e5688"/>
<use xlink:href="#font_1_2" transform="matrix(13.836944,0,0,-13.836944,370.0119,27.849442)" fill="#1e5688"/>
<symbol id="font_5_1">
<path d="M .72 0 C .736 0 .763 0 .763 .027999983 C .763 .05600001 .736 .05600001 .72 .05600001 L .042999999 .05600001 C .026999996 .05600001 0 .05600001 0 .027999983 C 0 0 .026999996 0 .042999999 0 L .72 0 Z "/>
</symbol>
<use xlink:href="#font_5_1" transform="matrix(13.836944,0,0,-13.836944,374.35276,13.505987)" fill="#1e5688"/>
<symbol id="font_6_1">
<path d="M .25500003 .63600006 C .25500003 .666 .252 .666 .21900001 .666 C .148 .60200008 .037 .60200008 .017000005 .60200008 L 0 .60200008 L 0 .558 L .017000005 .558 C .040000008 .558 .105000007 .56100007 .16300002 .586 L .16300002 .086 C .16300002 .055000005 .16300002 .044000005 .056999998 .044000005 L .0069999995 .044000005 L .0069999995 0 C .062000008 .004 .151 .004 .20900002 .004 C .26700003 .004 .356 .004 .411 0 L .411 .044000005 L .361 .044000005 C .25500003 .044000005 .25500003 .055000005 .25500003 .086 L .25500003 .63600006 Z "/>
</symbol>
<use xlink:href="#font_6_1" transform="matrix(13.836944,0,0,-13.836944,389.1092,16.57779)" fill="#1e5688"/>
<use xlink:href="#font_2_1" transform="matrix(19.371666,0,0,-19.371666,403.76365,28.688675)" fill="#1e5688"/>
<use xlink:href="#font_0_2" transform="matrix(19.371666,0,0,-19.371666,414.5205,25.163033)" fill="#1e5688"/>
<use xlink:href="#font_2_1" transform="matrix(19.371666,0,0,-19.371666,429.1692,28.688675)" fill="#1e5688"/>
<use xlink:href="#font_0_2" transform="matrix(19.371666,0,0,-19.371666,439.92607,25.163033)" fill="#1e5688"/>
<use xlink:href="#font_1_1" transform="matrix(13.836944,0,0,-13.836944,450.00358,27.849472)" fill="#1e5688"/>
<symbol id="font_3_1">
<path d="M .37800003 .287 C .37800003 .37 .31300003 .444 .17600002 .444 C .12900001 .444 .026 .444 .026 .367 C .026 .34 .045 .31800003 .075 .31800003 C .094 .31800003 .12100001 .33 .12300001 .36600004 C .12300001 .374 .124 .375 .13700001 .377 C .148 .37800003 .165 .37800003 .177 .37800003 C .259 .37800003 .30200003 .34100003 .30200003 .286 C .19500001 .286 0 .261 0 .138 C 0 .064 .069000009 0 .17 0 C .25 0 .3 .030000002 .31300003 .039 C .33400003 .008 .37600003 .0050000005 .42400003 .0050000005 C .451 .0050000005 .47700004 .0050000005 .47700004 .038 C .47700004 .071 .44900004 .071 .43500004 .071 C .397 .071 .388 .07400001 .37800003 .07800001 L .37800003 .287 M .30200003 .148 C .30200003 .127 .30200003 .10400001 .263 .08500001 C .22800002 .067 .18900001 .06600001 .17600002 .06600001 C .117 .06600001 .076000008 .101 .076000008 .138 C .076000008 .191 .186 .221 .30200003 .222 L .30200003 .148 Z "/>
</symbol>
<use xlink:href="#font_3_1" transform="matrix(19.371666,0,0,-19.371666,328.42396,177.28577)"/>
<use xlink:href="#font_3_2" transform="matrix(19.371666,0,0,-19.371666,338.34223,177.28577)"/>
<use xlink:href="#font_3_2" transform="matrix(19.371666,0,0,-19.371666,348.62858,177.28577)"/>
<path transform="matrix(2.7777777,0,0,-2.7777777,359.50553,176.63335)" stroke-width=".398" stroke-linecap="butt" stroke-miterlimit="10" stroke-linejoin="miter" fill="none" stroke="#000000" d="M 0 0 L 2.223 0 "/>
<symbol id="font_3_a">
<path d="M .19600001 .18300002 C .19600001 .29200004 .27400003 .37 .37100003 .37 C .37300004 .33100004 .40100003 .323 .41700004 .323 C .44200004 .323 .46300004 .34100003 .46300004 .37 C .46300004 .395 .44500003 .43600003 .367 .43600003 C .275 .43600003 .22100002 .38300003 .19600001 .358 L .19600001 .388 C .19600001 .42200003 .186 .43100003 .15300001 .43100003 L .044 .43100003 C .030000002 .43100003 0 .43100003 0 .39800004 C 0 .365 .030000002 .365 .044 .365 L .120000008 .365 L .120000008 .066 L .044 .066 C .030000002 .066 0 .066 0 .033 C 0 0 .030000002 0 .044 0 L .30200003 0 C .31800003 0 .34500004 0 .34500004 .033 C .34500004 .066 .31800003 .066 .30200003 .066 L .19600001 .066 L .19600001 .18300002 Z "/>
</symbol>
<symbol id="font_3_3">
<path d="M .374 .193 C .393 .193 .41700004 .193 .41700004 .231 C .41700004 .351 .349 .444 .22 .444 C .097 .444 0 .344 0 .222 C 0 .10300001 .10000001 0 .236 0 C .37300004 0 .41700004 .08800001 .41700004 .113000009 C .41700004 .135 .4 .14400001 .379 .14400001 C .36200003 .14400001 .35200004 .143 .342 .12100001 C .32200004 .076000008 .273 .06600001 .241 .06600001 C .16800002 .06600001 .095 .11400001 .078999999 .193 L .374 .193 M .08 .25800003 C .095 .328 .15400002 .37800003 .22 .37800003 C .31 .37800003 .333 .308 .33900003 .25800003 L .08 .25800003 Z "/>
</symbol>
<symbol id="font_3_7">
<path d="M .245 .568 C .245 .60200008 .23500002 .611 .20200002 .611 L .044000005 .611 C .029000003 .611 0 .611 0 .578 C 0 .545 .030000005 .545 .044000005 .545 L .16900002 .545 L .16900002 .066 L .044000005 .066 C .029000003 .066 0 .066 0 .033 C 0 0 .030000005 0 .044000005 0 L .37000004 0 C .38500003 0 .41400004 0 .41400004 .033 C .41400004 .066 .38400004 .066 .37000004 .066 L .245 .066 L .245 .568 Z "/>
</symbol>
<symbol id="font_3_b">
<path d="M .20300001 .37 L .363 .37 C .37800003 .37 .40600003 .37 .40600003 .40300004 C .40600003 .43600003 .37800003 .43600003 .363 .43600003 L .20300001 .43600003 L .20300001 .51600006 C .20300001 .535 .20300001 .559 .165 .559 C .127 .559 .127 .53400006 .127 .51600006 L .127 .43600003 L .044000009 .43600003 C .029000001 .43600003 0 .43600003 0 .40300004 C 0 .37 .028000003 .37 .043000007 .37 L .127 .37 L .127 .142 C .127 .034 .20300001 0 .273 0 C .363 0 .42900003 .063 .42900003 .135 C .42900003 .169 .4 .169 .391 .169 C .365 .169 .354 .15900001 .35300002 .134 C .351 .09300001 .315 .06600001 .277 .06600001 C .20300001 .06600001 .20300001 .12100001 .20300001 .14400001 L .20300001 .37 Z "/>
</symbol>
<symbol id="font_3_9">
<path d="M .42000003 .221 C .42000003 .34300003 .326 .444 .21000001 .444 C .094 .444 0 .34300003 0 .221 C 0 .09600001 .096 0 .21000001 0 C .324 0 .42000003 .09600001 .42000003 .221 M .21000001 .06600001 C .138 .06600001 .076000008 .137 .076000008 .228 C .076000008 .315 .139 .37800003 .21000001 .37800003 C .28100003 .37800003 .344 .315 .344 .228 C .344 .137 .282 .06600001 .21000001 .06600001 Z "/>
</symbol>
<use xlink:href="#font_3_a" transform="matrix(19.371666,0,0,-19.371666,366.26173,177.1889)"/>
<use xlink:href="#font_3_3" transform="matrix(19.371666,0,0,-19.371666,376.99366,177.28577)"/>
<use xlink:href="#font_3_7" transform="matrix(19.371666,0,0,-19.371666,387.3769,177.1889)"/>
<use xlink:href="#font_3_1" transform="matrix(19.371666,0,0,-19.371666,397.5664,177.28577)"/>
<use xlink:href="#font_3_b" transform="matrix(19.371666,0,0,-19.371666,407.31037,177.28577)"/>
<use xlink:href="#font_3_6" transform="matrix(19.371666,0,0,-19.371666,418.64283,177.1889)"/>
<use xlink:href="#font_3_9" transform="matrix(19.371666,0,0,-19.371666,428.46427,177.28577)"/>
<use xlink:href="#font_3_8" transform="matrix(19.371666,0,0,-19.371666,437.8983,177.1889)"/>
<use xlink:href="#font_0_4" transform="matrix(19.371666,0,0,-19.371666,455.2216,177.38262)"/>
<use xlink:href="#font_0_3" transform="matrix(19.371666,0,0,-19.371666,475.1938,177.38262)"/>
<use xlink:href="#font_0_2" transform="matrix(19.371666,0,0,-19.371666,500.6675,177.42136)" fill="#1e5688"/>
<use xlink:href="#font_0_4" transform="matrix(19.371666,0,0,-19.371666,160.54656,308.68263)"/>
<use xlink:href="#font_0_3" transform="matrix(19.371666,0,0,-19.371666,393.78825,308.68263)"/>
<use xlink:href="#font_0_5" transform="matrix(19.371666,0,0,-19.371666,273.5716,228.56038)"/>
<use xlink:href="#font_1_2" transform="matrix(13.836944,0,0,-13.836944,284.19529,231.28554)"/>
<path transform="matrix(2.7777777,0,0,-2.7777777,40.491666,131.09166)" stroke-width=".3985" stroke-linecap="butt" stroke-miterlimit="10" stroke-linejoin="miter" fill="none" stroke="#000000" d="M 50.66399 -58.82414 L 80.35509 -39.02774 "/>
<path transform="matrix(2.3110276,-1.5408888,-1.5408888,-2.3110276,263.70018,239.50212)" stroke-width=".31879" stroke-linecap="round" stroke-linejoin="round" fill="none" stroke="#000000" d="M -1.19551 1.59401 C -1.09587 .99626 0 .09961 .29886 0 C 0 -.09961 -1.09587 -.99626 -1.19551 -1.59401 "/>
<use xlink:href="#font_0_2" transform="matrix(19.371666,0,0,-19.371666,192.69275,256.2019)" fill="#1e5688"/>
<use xlink:href="#font_1_2" transform="matrix(13.836944,0,0,-13.836944,202.77025,258.8883)" fill="#1e5688"/>
<path transform="matrix(2.7777777,0,0,-2.7777777,40.491666,131.09166)" stroke-width=".3985" stroke-linecap="butt" stroke-miterlimit="10" stroke-linejoin="miter" fill="none" stroke="#000000" d="M 124.01419 -58.10933 L 95.39546 -39.02774 "/>
<path transform="matrix(-2.3110276,-1.5408888,-1.5408888,2.3110276,305.4791,239.50212)" stroke-width=".31879" stroke-linecap="round" stroke-linejoin="round" fill="none" stroke="#000000" d="M -1.19551 1.59401 C -1.09587 .99626 0 .09961 .29886 0 C 0 -.09961 -1.09587 -.99626 -1.19551 -1.59401 "/>
<use xlink:href="#font_0_2" transform="matrix(19.371666,0,0,-19.371666,353.04557,255.20746)" fill="#1e5688"/>
<use xlink:href="#font_1_1" transform="matrix(13.836944,0,0,-13.836944,363.12306,257.89387)" fill="#1e5688"/>
<path transform="matrix(2.7777777,0,0,-2.7777777,40.491666,131.09166)" stroke-width=".3985" stroke-linecap="butt" stroke-dasharray="2.98883,1.99255,.3985,1.99255" stroke-miterlimit="10" stroke-linejoin="miter" fill="none" stroke="#000000" d="M 50.66399 -62.36288 L 123.55591 -62.36288 "/>
<path transform="matrix(2.7777777,0,0,-2.7777777,383.70249,304.32188)" stroke-width=".31879" stroke-linecap="round" stroke-linejoin="round" fill="none" stroke="#000000" d="M -1.19551 1.59401 C -1.09587 .99626 0 .09961 .29886 0 C 0 -.09961 -1.09587 -.99626 -1.19551 -1.59401 "/>
<use xlink:href="#font_0_2" transform="matrix(19.371666,0,0,-19.371666,242.43166,330.03526)" fill="#1e5688"/>
<use xlink:href="#font_1_2" transform="matrix(13.836944,0,0,-13.836944,252.50638,332.72166)" fill="#1e5688"/>
<use xlink:href="#font_2_1" transform="matrix(19.371666,0,0,-19.371666,270.6526,333.5609)" fill="#1e5688"/>
<use xlink:href="#font_0_2" transform="matrix(19.371666,0,0,-19.371666,281.40946,330.03526)" fill="#1e5688"/>
<use xlink:href="#font_1_1" transform="matrix(13.836944,0,0,-13.836944,291.48417,332.72166)" fill="#1e5688"/>
<use xlink:href="#font_5_1" transform="matrix(13.836944,0,0,-13.836944,300.63056,318.3782)" fill="#1e5688"/>
<use xlink:href="#font_6_1" transform="matrix(13.836944,0,0,-13.836944,315.38423,321.45)" fill="#1e5688"/>
<symbol id="font_3_5">
<path d="M .11500001 .36600004 C .132 .356 .165 .342 .20500002 .342 C .30200003 .342 .37600003 .416 .37600003 .503 C .37600003 .538 .363 .569 .351 .58800008 C .37100003 .59900006 .38200004 .6 .39900003 .602 C .40500004 .57800009 .423 .56700006 .44200004 .56700006 C .46600003 .56700006 .48500005 .586 .48500005 .61 C .48500005 .64100006 .46 .669 .409 .669 C .38200004 .669 .33900003 .661 .30400003 .635 C .29500003 .64100006 .257 .66400006 .20600002 .66400006 C .10900001 .66400006 .035000005 .59000006 .035000005 .503 C .035000005 .47100003 .046000005 .43600003 .067 .41000004 C .059 .397 .047000007 .37 .047000007 .342 C .047000007 .31300003 .059 .28500004 .071 .27 C .029000003 .24600002 0 .19700001 0 .148 C 0 .060000004 .10800001 0 .23500002 0 C .36200003 0 .47 .060000004 .47 .148 C .47 .23500002 .39400003 .28700004 .287 .291 C .257 .29200004 .18300002 .29000003 .15400002 .29400004 C .11 .29400004 .11 .34100003 .11 .342 C .11 .35400004 .113000009 .361 .11500001 .36600004 M .20500002 .407 C .155 .407 .111 .44900004 .111 .503 C .111 .55700007 .155 .59900006 .20500002 .59900006 C .257 .59900006 .3 .556 .3 .503 C .3 .45100004 .25800003 .407 .20500002 .407 M .20700002 .22900002 C .29500003 .22900002 .407 .22900002 .407 .148 C .407 .10700001 .335 .06500001 .23500002 .06500001 C .134 .06500001 .063 .10800001 .063 .148 C .063 .187 .09900001 .22800002 .15200001 .22900002 L .20700002 .22900002 Z "/>
</symbol>
<use xlink:href="#font_3_5" transform="matrix(19.371666,0,0,-19.371666,103.98392,362.61677)"/>
<use xlink:href="#font_3_3" transform="matrix(19.371666,0,0,-19.371666,114.71582,358.29689)"/>
<use xlink:href="#font_3_b" transform="matrix(19.371666,0,0,-19.371666,124.45976,358.29689)"/>
<path transform="matrix(2.7777777,0,0,-2.7777777,135.51389,357.64723)" stroke-width=".398" stroke-linecap="butt" stroke-miterlimit="10" stroke-linejoin="miter" fill="none" stroke="#000000" d="M 0 0 L 2.223 0 "/>
<use xlink:href="#font_3_a" transform="matrix(19.371666,0,0,-19.371666,142.27004,358.2)"/>
<use xlink:href="#font_3_3" transform="matrix(19.371666,0,0,-19.371666,153.00194,358.29689)"/>
<use xlink:href="#font_3_7" transform="matrix(19.371666,0,0,-19.371666,163.38513,358.2)"/>
<use xlink:href="#font_3_1" transform="matrix(19.371666,0,0,-19.371666,173.57465,358.29689)"/>
<use xlink:href="#font_3_b" transform="matrix(19.371666,0,0,-19.371666,183.3186,358.29689)"/>
<use xlink:href="#font_3_6" transform="matrix(19.371666,0,0,-19.371666,194.65102,358.2)"/>
<use xlink:href="#font_3_9" transform="matrix(19.371666,0,0,-19.371666,204.47245,358.29689)"/>
<use xlink:href="#font_3_8" transform="matrix(19.371666,0,0,-19.371666,213.90645,358.2)"/>
<use xlink:href="#font_0_4" transform="matrix(19.371666,0,0,-19.371666,231.2299,358.39375)"/>
<use xlink:href="#font_0_3" transform="matrix(19.371666,0,0,-19.371666,251.20209,358.39375)"/>
<use xlink:href="#font_4_3" transform="matrix(19.371666,0,0,-19.371666,277.59214,355.9529)"/>
<use xlink:href="#font_0_2" transform="matrix(19.371666,0,0,-19.371666,299.96778,358.43247)" fill="#1e5688"/>
<use xlink:href="#font_1_2" transform="matrix(13.836944,0,0,-13.836944,310.04527,361.11888)" fill="#1e5688"/>
<use xlink:href="#font_2_1" transform="matrix(19.371666,0,0,-19.371666,328.19148,361.95814)" fill="#1e5688"/>
<use xlink:href="#font_0_2" transform="matrix(19.371666,0,0,-19.371666,338.94557,358.43247)" fill="#1e5688"/>
<use xlink:href="#font_1_1" transform="matrix(13.836944,0,0,-13.836944,349.02305,361.11888)" fill="#1e5688"/>
<use xlink:href="#font_5_1" transform="matrix(13.836944,0,0,-13.836944,358.16944,346.77543)" fill="#1e5688"/>
<use xlink:href="#font_6_1" transform="matrix(13.836944,0,0,-13.836944,372.92308,349.84724)" fill="#1e5688"/>
<symbol id="font_4_7">
<path d="M .49000005 .22300002 C .49000005 .34800003 .38300003 .456 .245 .456 C .10700001 .456 0 .34800003 0 .22300002 C 0 .099 .11 0 .245 0 C .38000003 0 .49000005 .099 .49000005 .22300002 M .245 .032 C .208 .032 .154 .044000005 .12100001 .093 C .094 .134 .091000009 .18600002 .091000009 .23200003 C .091000009 .275 .09200001 .334 .127 .377 C .15200001 .40600003 .194 .428 .245 .428 C .30400003 .428 .34600003 .4 .368 .36900003 C .39600004 .33 .39900003 .28 .39900003 .23200003 C .39900003 .18400002 .39600004 .13100001 .367 .09 C .34 .052000006 .294 .032 .245 .032 Z "/>
</symbol>
<symbol id="font_4_8">
<path d="M .15 .22800002 C .15 .312 .18900001 .41300003 .284 .41300003 C .275 .40600003 .26700003 .393 .26700003 .377 C .26700003 .344 .293 .33100004 .31200005 .33100004 C .33600004 .33100004 .358 .347 .358 .377 C .358 .411 .32600004 .441 .279 .441 C .22900003 .441 .174 .41000004 .144 .33400003 L .143 .33400003 L .143 .441 L 0 .43 L 0 .39400003 C .067 .39400003 .075 .38700003 .075 .33800004 L .075 .079 C .075 .036000004 .065000008 .036000004 0 .036000004 L 0 0 C .004999999 0 .07300001 .004 .114 .004 C .157 .004 .201 .002 .24400002 0 L .24400002 .036000004 L .224 .036000004 C .15 .036000004 .15 .047000003 .15 .081 L .15 .22800002 Z "/>
</symbol>
<symbol id="font_4_4">
<path d="M .20500002 .66800007 C .194 .68200007 .19300002 .683 .17300001 .683 L 0 .683 L 0 .647 L .030000002 .647 C .07300001 .647 .09800001 .642 .10300001 .64100006 L .10300001 .108 C .10300001 .081 .10300001 .036000004 0 .036000004 L 0 0 C .041 .003 .08100001 .004 .122 .004 C .16300002 .004 .20300001 .003 .24400002 0 L .24400002 .036000004 C .141 .036000004 .141 .081 .141 .108 L .141 .61300006 L .58500006 .015000001 C .595 .001 .596 0 .60800006 0 C .62700006 0 .62700006 .009000001 .62700006 .028 L .62700006 .57500007 C .62700006 .60200008 .62700006 .647 .73 .647 L .73 .683 C .68900009 .68 .64900007 .679 .60800006 .679 C .56700006 .679 .527 .68 .48600007 .683 L .48600007 .647 C .58900007 .647 .58900007 .60200008 .58900007 .57500007 L .58900007 .15100001 L .20500002 .66800007 Z "/>
</symbol>
<symbol id="font_4_6">
<path d="M .46100006 .303 C .46100006 .39000003 .41800005 .441 .31100003 .441 C .22900002 .441 .176 .39600004 .148 .344 L .147 .344 L .147 .441 L 0 .43 L 0 .39400003 C .067 .39400003 .075 .38700003 .075 .33800004 L .075 .079 C .075 .036000004 .065 .036000004 0 .036000004 L 0 0 C .0020000004 0 .072 .004 .11400001 .004 C .15100001 .004 .22000002 .001 .22900002 0 L .22900002 .036000004 C .164 .036000004 .154 .036000004 .154 .079 L .154 .259 C .154 .36400003 .237 .41300003 .30300004 .41300003 C .37300004 .41300003 .38200004 .358 .38200004 .307 L .38200004 .079 C .38200004 .036000004 .37200005 .036000004 .30700005 .036000004 L .30700005 0 C .30900003 0 .37900005 .004 .42100004 .004 C .45800004 .004 .527 .001 .536 0 L .536 .036000004 C .47100006 .036000004 .46100006 .036000004 .46100006 .079 L .46100006 .303 Z "/>
</symbol>
<symbol id="font_4_5">
<path d="M .40100003 .23800002 C .42200003 .23800002 .42900003 .23800002 .42900003 .26 C .42900003 .34800003 .38000003 .456 .231 .456 C .10000001 .456 0 .352 0 .22900002 C 0 .102000009 .111 0 .24400002 0 C .379 0 .42900003 .108 .42900003 .13000001 C .42900003 .134 .42700003 .14400001 .41200004 .14400001 C .39900003 .14400001 .397 .13800001 .39400003 .128 C .363 .047000003 .287 .032 .25100003 .032 C .20400001 .032 .15900001 .053000004 .12900001 .091 C .09200001 .13800001 .091000009 .19900002 .091000009 .23800002 L .40100003 .23800002 M .09200001 .264 C .103 .405 .193 .428 .231 .428 C .354 .428 .358 .289 .35900004 .264 L .09200001 .264 Z "/>
</symbol>
<use xlink:href="#font_4_7" transform="matrix(19.371666,0,0,-19.371666,389.95823,358.39375)"/>
<use xlink:href="#font_4_8" transform="matrix(19.371666,0,0,-19.371666,401.19383,358.2)"/>
<use xlink:href="#font_4_4" transform="matrix(19.371666,0,0,-19.371666,417.42726,358.2)"/>
<use xlink:href="#font_4_7" transform="matrix(19.371666,0,0,-19.371666,433.42829,358.39375)"/>
<use xlink:href="#font_4_6" transform="matrix(19.371666,0,0,-19.371666,444.7607,358.2)"/>
<use xlink:href="#font_4_5" transform="matrix(19.371666,0,0,-19.371666,456.69364,358.39375)"/>
</g>
</svg>
